<?xml version="1.0" standalone="no"?>
<!DOCTYPE svg PUBLIC "-//W3C//DTD SVG 20010904//EN"
 "http://www.w3.org/TR/2001/REC-SVG-20010904/DTD/svg10.dtd">
<svg version="1.0" xmlns="http://www.w3.org/2000/svg"
 width="940.000000pt" height="940.000000pt" viewBox="0 0 940.000000 940.000000"
 preserveAspectRatio="xMidYMid meet">
<metadata>
Created by potrace 1.14, written by Peter Selinger 2001-2017
</metadata>
<g transform="translate(0.000000,940.000000) scale(0.100000,-0.100000)"
fill="#000000" stroke="none">
<path d="M4278 8461 l-136 -7 -34 -33 c-18 -19 -55 -43 -82 -56 -61 -27 -125
-19 -167 21 -33 32 -75 42 -168 39 -58 -2 -76 -6 -91 -23 -22 -23 -78 -42
-127 -42 -18 0 -33 -5 -33 -11 0 -5 -4 -7 -10 -4 -5 3 -16 3 -22 -2 -7 -4 -35
-9 -63 -11 -27 -2 -65 -12 -83 -23 -18 -10 -39 -19 -47 -19 -7 0 -15 -3 -17
-8 -1 -4 -56 -34 -120 -66 -64 -32 -126 -67 -137 -77 -11 -11 -25 -19 -30 -19
-5 0 -15 -17 -22 -37 -7 -21 -19 -48 -27 -60 -8 -13 -12 -23 -8 -23 3 0 -4
-11 -16 -25 -11 -13 -25 -22 -30 -19 -4 3 -8 1 -8 -4 0 -14 -88 -102 -113
-113 -12 -5 -37 -18 -55 -29 -18 -11 -60 -32 -94 -46 -33 -14 -74 -35 -90 -47
-34 -25 -117 -127 -173 -212 -22 -33 -56 -81 -75 -106 -28 -35 -46 -77 -74
-175 -37 -125 -38 -133 -33 -244 3 -63 10 -128 16 -143 6 -16 11 -54 11 -85 1
-120 38 -341 73 -439 9 -22 13 -43 10 -46 -2 -3 0 -15 6 -26 7 -11 12 -36 13
-55 2 -51 157 -257 218 -289 25 -13 48 -24 53 -25 64 -7 151 -13 229 -17 54
-2 105 -8 115 -14 10 -5 44 -36 75 -69 87 -91 113 -110 142 -105 49 10 51 19
56 299 4 191 8 266 18 276 6 6 12 19 12 27 1 35 28 54 75 53 55 0 71 13 79 71
9 58 33 66 78 26 35 -31 42 -34 101 -44 47 -8 100 -54 121 -105 24 -60 50 -72
184 -83 138 -11 210 -11 352 1 58 4 114 7 125 4 28 -5 52 -80 36 -110 -15 -28
-14 -62 2 -62 15 0 27 -21 53 -92 15 -43 20 -48 47 -48 21 0 40 11 69 41 37
38 43 41 81 35 23 -3 62 -8 87 -10 25 -3 65 -9 90 -14 25 -5 58 -5 75 0 17 5
52 13 79 18 51 10 86 37 86 65 0 9 -11 27 -25 41 -27 27 -33 59 -12 67 10 4
10 6 0 6 -7 1 -13 13 -13 27 0 25 -2 26 -37 21 -30 -5 -43 -1 -64 17 -34 30
-33 48 13 128 21 37 38 72 38 77 0 5 7 11 15 15 8 3 15 10 15 15 0 19 77 89
113 102 30 11 43 11 72 0 19 -7 38 -10 42 -8 5 3 24 -2 43 -12 32 -15 35 -20
38 -66 4 -58 26 -85 71 -85 16 0 37 -7 46 -17 11 -11 19 -13 23 -6 8 12 62
-29 62 -47 0 -5 6 -10 14 -10 10 0 13 -9 9 -31 -3 -21 -1 -29 6 -24 6 3 11 -1
11 -10 0 -8 -7 -18 -15 -21 -19 -8 -19 -24 0 -24 8 0 39 25 68 56 78 80 95 87
207 84 52 -2 110 -2 129 -2 19 0 42 -3 51 -8 13 -7 23 -3 40 15 19 21 22 31
17 70 -8 57 -33 92 -72 101 -16 3 -35 10 -41 15 -6 5 -21 11 -35 13 -13 3 -26
5 -28 5 -2 1 2 8 9 16 9 10 9 15 1 15 -6 0 -11 5 -11 11 0 6 7 8 17 5 9 -4 19
-3 22 1 3 5 18 16 34 26 l27 18 45 -46 c25 -25 50 -45 56 -45 19 0 87 54 103
82 12 19 15 39 10 67 -9 59 14 139 58 198 21 29 38 54 38 55 -1 2 3 16 9 31 6
16 11 32 11 36 0 5 11 20 25 35 14 15 25 31 25 36 0 10 12 25 68 88 41 46 89
129 96 164 8 44 -4 65 -50 88 -49 26 -51 31 -52 117 -1 84 -14 107 -55 99 -18
-3 -40 -17 -50 -30 -14 -20 -23 -23 -45 -17 -25 7 -27 12 -28 58 -1 35 -9 65
-26 95 -36 60 -55 74 -112 83 -43 6 -118 37 -196 80 -14 8 -43 36 -65 62 -60
72 -149 156 -189 178 -19 11 -74 45 -123 75 -82 52 -127 72 -213 97 -82 24
-155 48 -160 53 -3 3 -52 16 -110 29 -58 13 -150 34 -205 46 -171 39 -245 45
-447 36z m-84 -1617 c9 -3 16 -13 16 -21 0 -8 -4 -12 -9 -9 -4 3 -8 -7 -9 -22
-1 -67 -13 -228 -17 -240 -3 -7 -21 -20 -40 -28 -44 -18 -64 -9 -90 40 -11 20
-23 36 -26 36 -8 0 -23 69 -20 90 2 8 6 17 10 20 4 3 15 22 24 42 36 77 102
115 161 92z m1259 -323 c4 -1 7 -12 7 -26 0 -23 -52 -85 -71 -85 -5 0 -9 -7
-9 -15 0 -8 -9 -15 -20 -15 -11 0 -20 -4 -20 -10 0 -5 -5 -10 -10 -10 -6 0
-10 8 -8 18 2 11 -4 18 -18 20 -15 2 -24 13 -28 35 -6 28 -2 36 26 62 29 26
40 30 88 29 30 -1 58 -2 63 -3z m-173 -141 c0 -5 -10 -10 -22 -10 -19 0 -20 2
-8 10 19 13 30 13 30 0z"/>
<path d="M5280 6320 c-11 -7 -12 -12 -4 -20 8 -8 13 -6 17 9 3 12 4 21 4 21
-1 0 -9 -5 -17 -10z"/>
<path d="M5311 6294 c0 -11 3 -14 6 -6 3 7 2 16 -1 19 -3 4 -6 -2 -5 -13z"/>
<path d="M5277 6253 c-7 -12 -24 -114 -25 -146 0 -21 4 -27 15 -23 8 3 30 6
48 6 42 0 54 19 47 76 -3 37 -7 43 -33 48 -16 3 -29 12 -29 20 0 17 -16 30
-23 19z"/>
<path d="M5673 6109 c-6 -6 -22 -16 -34 -23 -13 -6 -30 -23 -37 -36 -13 -23
-11 -32 23 -107 32 -70 41 -82 65 -85 15 -2 36 2 45 9 10 7 21 10 25 8 5 -3
10 2 14 10 3 8 16 15 28 15 37 0 66 85 44 125 -13 23 -47 54 -60 55 -5 0 -14
7 -20 15 -14 20 -78 29 -93 14z"/>
<path d="M5366 4444 c-3 -9 -2 -12 4 -9 7 4 8 -7 4 -33 -6 -38 8 -64 24 -47 4
4 1 10 -5 12 -7 3 -13 12 -13 20 0 11 7 14 24 9 20 -5 24 -2 24 20 0 20 -5 24
-22 22 -13 -2 -20 2 -18 10 3 17 -15 15 -22 -4z"/>
<path d="M5295 4380 c-3 -5 -3 -10 2 -10 4 0 1 -4 -6 -9 -12 -8 -9 -11 12 -16
31 -8 59 9 50 31 -6 16 -49 19 -58 4z"/>
</g>
</svg>
