<?xml version="1.0" standalone="no"?>
<!DOCTYPE svg PUBLIC "-//W3C//DTD SVG 20010904//EN"
 "http://www.w3.org/TR/2001/REC-SVG-20010904/DTD/svg10.dtd">
<svg version="1.0" xmlns="http://www.w3.org/2000/svg"
 width="320.000000pt" height="320.000000pt" viewBox="0 0 320.000000 320.000000"
 preserveAspectRatio="xMidYMid meet">
<metadata>
Created by potrace 1.14, written by Peter Selinger 2001-2017
</metadata>
<g transform="translate(0.000000,320.000000) scale(0.100000,-0.100000)"
fill="#000000" stroke="none">
<path d="M106 3189 c-90 -7 -116 -13 -105 -23 2 -1 101 5 219 14 201 16 207
17 100 17 -63 0 -159 -3 -214 -8z"/>
<path d="M853 3153 c4 -27 9 -81 13 -121 4 -40 11 -75 17 -79 6 -4 8 8 4 33
-3 21 -9 78 -13 127 -4 48 -11 87 -17 87 -6 0 -7 -19 -4 -47z"/>
<path d="M2010 3177 c0 -47 70 -981 77 -1037 l8 -54 55 2 c30 1 134 7 230 12
96 5 319 17 495 26 176 9 322 18 324 20 12 11 -17 12 -149 4 -80 -5 -296 -16
-480 -24 -184 -9 -365 -18 -401 -21 l-65 -6 -22 293 c-12 161 -29 406 -38 543
-9 138 -21 254 -25 260 -5 5 -9 -2 -9 -18z"/>
<path d="M977 2996 c-37 -17 -45 -24 -35 -34 16 -16 4 -25 -31 -24 -24 0 -35
-7 -51 -33 -12 -19 -24 -34 -28 -34 -30 5 -55 -6 -83 -33 -18 -18 -37 -33 -43
-33 -6 0 -11 -7 -11 -15 0 -10 -17 -19 -47 -27 -26 -6 -57 -18 -68 -26 -33
-23 -70 -78 -81 -122 -12 -41 -25 -77 -40 -107 -5 -10 -9 -27 -9 -37 0 -11 -4
-23 -10 -26 -5 -3 -10 -15 -10 -26 0 -10 -4 -19 -8 -19 -11 0 -30 -56 -36
-105 -2 -22 -7 -52 -11 -66 -4 -15 -2 -29 3 -33 5 -3 3 -29 -6 -63 -12 -48
-13 -68 -3 -118 7 -32 21 -71 31 -85 10 -14 27 -53 38 -87 26 -79 17 -119 -41
-174 -23 -21 -45 -39 -48 -39 -4 0 -26 -16 -49 -35 -51 -43 -42 -44 46 -6 38
16 71 27 73 25 3 -2 -10 -19 -27 -37 -18 -18 -30 -36 -27 -39 4 -3 -10 -30
-29 -60 -35 -55 -57 -128 -38 -128 5 0 21 18 36 40 15 23 31 37 39 34 8 -3 20
2 27 10 25 31 28 4 5 -59 -13 -36 -20 -65 -16 -65 5 0 9 -11 9 -25 -1 -29 43
-70 54 -52 11 17 10 47 -2 47 -5 0 -10 7 -10 15 0 10 7 15 18 13 11 -2 16 2
13 12 -12 44 -12 72 -1 85 24 29 32 3 26 -89 -3 -50 -5 -109 -6 -131 0 -27 -3
-36 -9 -26 -7 10 -9 8 -9 -10 0 -13 -3 -41 -7 -62 -6 -30 -5 -37 8 -37 8 0 23
-13 34 -29 62 -97 129 -189 135 -185 4 3 12 -5 18 -16 6 -11 9 -20 6 -20 -2 0
10 -15 27 -33 18 -18 39 -31 47 -28 8 2 12 1 8 -3 -6 -7 15 -35 58 -80 18 -19
44 -78 38 -87 -3 -5 0 -9 6 -9 8 0 10 -12 5 -39 -3 -21 -8 -56 -9 -77 -3 -40
-32 -114 -46 -114 -4 0 -7 -14 -8 -30 -1 -39 -32 -122 -49 -133 -7 -4 -13 -16
-13 -25 0 -13 -2 -14 -9 -3 -6 9 -10 5 -14 -15 -9 -48 -25 -100 -26 -87 -1 16
-36 8 -74 -16 l-32 -21 103 0 c80 0 101 3 96 13 -6 9 -4 9 7 1 8 -7 35 -12 62
-12 46 -1 47 -1 41 25 -5 18 -4 24 5 19 6 -4 11 -16 11 -27 0 -17 8 -19 90
-19 87 0 90 1 80 19 -5 11 -9 30 -9 43 1 17 3 18 6 6 7 -27 23 -21 23 8 0 14
-4 23 -10 19 -5 -3 -10 1 -10 10 0 9 -4 13 -10 10 -5 -3 -7 0 -5 7 7 18 43 21
78 6 18 -7 26 -16 23 -25 -4 -8 -6 -17 -6 -19 0 -2 -7 -4 -15 -4 -8 0 -15 -7
-15 -15 0 -11 11 -15 40 -15 29 0 40 4 40 15 0 12 4 13 19 5 21 -11 54 -3 45
11 -3 5 -1 9 3 9 8 0 43 52 43 64 0 3 -8 6 -17 7 -11 0 -13 3 -5 6 14 6 16 33
2 33 -5 0 -10 -4 -10 -10 0 -5 -4 -10 -10 -10 -12 0 -13 80 -1 99 7 10 12 8
24 -10 14 -20 17 -20 23 -6 3 10 4 28 2 42 -3 14 0 26 8 29 21 8 17 33 -6 39
-22 6 -28 37 -6 37 7 0 19 -7 26 -15 7 -9 16 -12 19 -8 13 17 58 32 91 30 30
-2 35 -7 38 -29 2 -15 14 -34 29 -43 l25 -17 -22 -15 c-27 -19 -23 -55 8 -60
17 -2 25 4 32 23 8 21 13 24 25 14 14 -12 35 -6 35 10 0 5 14 24 30 42 l30 32
0 -26 c0 -14 -5 -28 -11 -30 -7 -2 -5 -9 5 -17 14 -12 16 -12 10 4 -6 15 -4
16 14 6 26 -14 32 -14 32 0 0 5 -5 7 -10 4 -15 -10 -12 5 6 22 14 15 15 14 12
-2 -4 -25 18 -30 25 -5 7 26 27 26 27 0 0 -17 5 -19 25 -14 27 7 32 -4 12 -25
-9 -11 -9 -14 1 -18 22 -8 13 -33 -13 -33 -16 0 -25 -6 -25 -15 0 -23 -28 -18
-32 6 -3 20 -3 20 -28 -3 -21 -20 -22 -23 -7 -26 18 -4 24 -22 7 -22 -5 0 -6
-8 -3 -17 5 -12 2 -15 -10 -10 -9 3 -19 2 -23 -4 -3 -6 3 -13 15 -16 12 -3 21
-13 20 -22 0 -10 -2 -11 -6 -3 -2 6 -9 9 -14 6 -6 -3 -5 -11 2 -20 14 -17 -2
-19 -20 -1 -8 6 -3 -3 9 -20 13 -18 30 -34 37 -34 7 -1 18 -3 23 -4 6 -1 13
-3 18 -4 4 -1 0 -5 -7 -10 -12 -8 -9 -11 14 -17 19 -5 31 -3 39 7 12 16 50 14
41 -2 -4 -5 8 -9 24 -9 18 0 31 5 31 13 0 9 2 9 8 0 6 -9 37 -12 104 -11 l96
1 7 44 c4 29 2 49 -6 59 -12 14 -10 15 24 18 6 1 12 -3 12 -9 2 -35 19 -55 55
-65 22 -6 41 -14 44 -19 12 -19 242 -32 521 -29 l290 3 -44 24 c-39 20 -108
32 -191 33 -8 0 -30 14 -48 32 -28 26 -35 29 -50 18 -42 -30 -63 -36 -73 -21
-5 8 -7 21 -5 31 3 14 -1 15 -25 6 -16 -5 -32 -14 -35 -19 -6 -10 -44 -13 -44
-3 0 3 7 12 15 20 11 11 12 21 5 40 -6 14 -8 29 -5 33 5 9 102 7 160 -3 165
-28 174 -29 189 -17 18 15 81 19 116 8 18 -6 21 -5 11 2 -12 8 -12 12 -2 25
11 13 11 16 -3 16 -9 0 -16 6 -16 13 0 15 -136 81 -149 72 -5 -3 -16 2 -25 11
-9 8 -20 13 -25 9 -5 -3 -12 -1 -16 5 -3 5 -19 10 -35 10 -16 0 -32 5 -35 10
-3 6 -16 10 -28 10 -13 0 -31 6 -42 14 -36 24 -74 25 -90 3 -8 -12 -18 -18
-21 -14 -4 4 -13 2 -21 -4 -9 -8 -17 -8 -25 -1 -7 5 -32 13 -56 17 -34 6 -43
12 -49 33 -4 15 -6 35 -4 44 1 10 -3 18 -8 18 -6 0 -11 -7 -11 -15 0 -20 -16
-19 -24 1 -5 13 -9 14 -21 4 -11 -9 -15 -5 -20 23 -6 33 -10 36 -53 42 -26 4
-41 10 -34 12 14 5 6 23 -10 23 -6 0 -8 -3 -5 -6 10 -10 -12 -44 -29 -44 -8 0
-12 5 -9 10 3 6 2 10 -3 10 -6 0 -8 9 -5 20 3 11 9 20 14 20 5 0 9 9 9 20 0
11 -4 20 -10 20 -5 0 -10 -7 -10 -15 0 -8 -7 -15 -16 -15 -11 0 -14 5 -9 17 4
10 8 23 8 30 0 6 6 9 14 6 9 -4 13 5 13 30 l0 35 -36 -8 c-21 -5 -41 -15 -45
-22 -6 -9 -9 -9 -9 -1 0 8 -21 12 -62 12 -106 0 -154 3 -130 8 23 4 23 5 -8
39 -18 21 -30 46 -30 62 0 16 -6 34 -12 41 -9 9 -13 60 -14 184 0 95 -1 175
-3 180 -2 4 -4 11 -5 16 -3 27 -14 16 -19 -19 -3 -27 -16 -51 -36 -72 -17 -18
-31 -35 -31 -40 0 -4 -6 -8 -13 -8 -8 0 -22 -9 -33 -21 -29 -32 -73 -51 -116
-51 -32 1 -42 -5 -63 -33 -27 -35 -73 -54 -85 -35 -12 19 1 58 21 63 12 3 19
14 19 30 0 37 27 95 53 111 12 8 44 17 70 21 54 6 143 40 167 63 13 12 12 13
-7 7 -13 -3 -28 -3 -35 2 -7 4 -15 8 -18 9 -94 17 -120 28 -120 49 0 8 -7 15
-15 15 -8 0 -15 5 -15 10 0 6 -4 10 -10 10 -5 0 -10 -9 -10 -20 0 -11 -5 -20
-11 -20 -6 0 -8 7 -5 16 8 20 -20 43 -51 44 -13 0 -23 4 -23 10 0 5 -6 7 -13
4 -7 -2 -22 4 -32 16 -23 25 -33 25 -60 0 -31 -30 -203 -36 -262 -9 -23 10
-45 19 -49 19 -4 0 -12 6 -18 14 -13 17 -103 66 -121 66 -16 0 -55 55 -55 78
0 10 -5 23 -12 30 -6 6 -8 15 -4 19 4 4 10 2 15 -5 4 -7 12 8 20 38 18 71 53
103 66 61 3 -10 13 -22 23 -25 9 -3 23 -9 30 -12 7 -3 12 1 12 10 0 11 9 16
26 16 25 0 26 2 23 58 -5 111 -3 122 30 122 17 0 33 -4 36 -10 3 -5 1 -10 -4
-10 -6 0 -11 -7 -11 -15 0 -9 -6 -18 -14 -21 -37 -14 -27 -64 12 -64 14 0 36
-10 48 -21 l23 -21 20 33 c11 19 25 39 30 46 14 16 14 63 0 63 -6 0 -9 6 -6
14 6 15 -19 30 -34 20 -5 -3 -9 -12 -9 -20 0 -23 -15 -16 -44 18 -35 43 -37
68 -8 101 14 16 14 19 2 27 -10 7 -11 10 -2 10 22 0 13 18 -12 22 -20 4 -25 0
-30 -25 -3 -16 -6 -42 -6 -58 0 -16 -4 -29 -9 -29 -20 0 -41 13 -41 25 0 18
-45 24 -71 11 -12 -6 -23 -20 -25 -31 -9 -65 -18 -88 -44 -117 -17 -18 -33
-41 -36 -51 -3 -11 -12 -16 -20 -13 -10 4 -14 -3 -15 -22 0 -22 -2 -24 -8 -8
-6 17 -10 15 -34 -14 -15 -17 -27 -28 -27 -24 0 4 -9 -4 -21 -17 -13 -15 -18
-30 -14 -44 4 -11 9 -35 12 -53 3 -18 10 -31 16 -29 13 4 55 -30 69 -58 11
-20 11 -20 -11 0 -19 16 -24 17 -31 5 -8 -13 -10 -12 -10 1 0 9 -7 19 -15 23
-13 5 -14 2 -4 -17 8 -14 -1 -9 -26 16 -59 58 -65 52 -61 -55 2 -51 7 -104 11
-118 5 -22 5 -23 -5 -7 -15 23 -31 264 -20 286 5 9 14 31 21 50 11 29 14 31
20 15 6 -15 8 -13 8 11 2 42 46 133 85 175 32 34 51 77 81 188 15 52 21 216 9
246 -11 29 -33 -9 -40 -71 -4 -32 -10 -65 -15 -73 -19 -33 5 114 28 178 14 38
33 57 33 33 0 -5 5 -45 11 -88 6 -43 12 -96 14 -118 1 -22 5 -62 8 -90 l6 -50
-13 55 -13 55 -8 -63 c-4 -34 -12 -65 -16 -68 -5 -3 -9 -19 -9 -35 l0 -30 30
23 c17 12 30 28 30 35 0 7 6 10 14 7 23 -9 27 11 11 62 -18 59 -17 54 -5 54 6
0 10 -10 11 -22 l0 -23 11 23 c6 12 18 21 26 20 24 -4 36 67 21 122 -7 25 -15
47 -18 50 -9 7 -31 88 -41 150 -18 107 26 265 103 375 12 17 43 50 70 75 54
48 49 68 -7 25 -21 -16 -37 -22 -41 -16 -3 6 -1 11 6 11 7 0 19 7 28 15 9 9
38 30 65 47 45 29 47 33 30 45 -29 21 -141 15 -197 -11z m23 -150 c0 -8 -7
-16 -15 -20 -12 -4 -13 -2 -2 14 14 24 17 25 17 6z m-46 -65 c-5 -3 -24 -23
-42 -44 -17 -21 -32 -35 -32 -31 0 16 -39 -30 -44 -52 -4 -14 -11 -22 -15 -19
-5 3 -7 -4 -4 -15 3 -11 1 -20 -5 -20 -8 0 -56 -101 -57 -120 -1 -17 -38 -100
-45 -100 -5 0 -11 -14 -15 -31 -4 -17 -19 -45 -34 -62 -16 -18 -47 -67 -69
-111 -32 -61 -41 -86 -37 -113 2 -20 0 -44 -6 -54 -7 -14 -6 -19 2 -19 8 0 10
-15 6 -50 -6 -46 6 -108 23 -120 10 -8 30 -71 20 -65 -4 3 -11 -1 -13 -7 -4
-10 -8 -10 -15 1 -6 8 -11 9 -13 2 -3 -6 -9 -7 -18 -2 -11 7 -11 15 -3 40 15
42 -3 30 -28 -19 -14 -28 -16 -40 -7 -43 8 -3 6 -10 -8 -20 -19 -15 -20 -14
-23 39 -2 30 2 79 7 109 8 43 7 60 -4 82 -9 18 -14 52 -13 93 2 63 2 64 5 13
2 -29 9 -53 15 -53 6 0 9 14 6 34 -2 19 -1 33 2 31 4 -2 16 24 28 58 24 70 85
184 153 284 25 37 61 97 80 133 19 36 38 68 43 71 5 4 6 14 3 22 -4 10 15 34
51 70 31 30 68 69 82 86 14 19 26 28 28 21 3 -7 1 -15 -4 -19z m-127 -613 c-3
-8 -6 -5 -6 6 -1 11 2 17 5 13 3 -3 4 -12 1 -19z m0 -90 c-2 -13 -4 -3 -4 22
0 25 2 35 4 23 2 -13 2 -33 0 -45z m-343 37 c-4 -8 -8 -15 -10 -15 -2 0 -4 7
-4 15 0 8 4 15 10 15 5 0 7 -7 4 -15z m139 -413 c-3 -12 -10 -22 -15 -22 -5 0
-7 3 -5 8 2 4 7 16 11 26 9 25 17 16 9 -12z m-113 -16 c0 -8 -7 -16 -15 -20
-13 -4 -14 -2 -5 14 13 23 20 26 20 6z m-103 -358 c-3 -8 -6 -5 -6 6 -1 11 2
17 5 13 3 -3 4 -12 1 -19z m360 0 c-3 -8 -6 -5 -6 6 -1 11 2 17 5 13 3 -3 4
-12 1 -19z m22 -55 c-13 -21 -54 -76 -91 -123 -50 -61 -70 -95 -75 -124 -5
-32 -8 -36 -14 -21 -11 30 -11 87 1 80 6 -3 10 1 10 9 0 9 5 16 10 16 6 0 10
5 10 10 0 6 4 16 10 23 39 47 60 78 80 114 31 55 38 48 9 -8 -29 -58 1 -35 38
28 14 24 28 42 30 39 3 -3 -5 -22 -18 -43z m-138 0 c-12 -20 -14 -14 -5 12 4
9 9 14 11 11 3 -2 0 -13 -6 -23z m-103 -213 c-2 -7 -10 1 -17 16 -12 27 -11
28 4 12 10 -9 16 -21 13 -28z m845 -62 c13 -19 2 -48 -17 -48 -16 0 -27 35
-19 56 6 18 23 14 36 -8z m97 -98 c0 -5 -12 -10 -26 -10 -14 0 -23 4 -19 10 3
6 15 10 26 10 10 0 19 -4 19 -10z m-766 -36 c3 -8 2 -12 -4 -9 -6 3 -10 10
-10 16 0 14 7 11 14 -7z m91 -91 l18 -28 -21 19 c-12 11 -22 23 -22 28 0 14 7
9 25 -19z m1011 16 c3 -6 1 -16 -6 -22 -10 -9 -12 -8 -7 5 3 9 1 19 -6 22 -9
3 -9 5 0 5 6 1 15 -4 19 -10z m19 -69 c-3 -11 0 -20 10 -24 23 -9 18 -28 -7
-24 -19 2 -22 -1 -20 -19 4 -26 -25 -33 -34 -8 -4 8 -10 13 -14 10 -5 -3 -7 7
-4 22 9 50 15 62 29 57 7 -3 16 0 20 5 10 17 27 2 20 -19z m71 -68 c-4 -3 -14
2 -24 12 -16 18 -16 18 6 6 13 -6 21 -14 18 -18z m103 -20 c-5 -2 -7 -7 -5
-11 3 -4 -1 -8 -8 -8 -8 0 -11 9 -8 23 3 18 7 20 17 11 7 -7 9 -14 4 -15z
m-151 -20 c6 -19 7 -30 2 -27 -6 4 -10 13 -10 21 0 8 -4 12 -10 9 -12 -7 -12
-3 -4 20 8 19 8 19 22 -23z m199 6 c-3 -8 -6 -5 -6 6 -1 11 2 17 5 13 3 -3 4
-12 1 -19z m-315 -31 c-5 -7 -9 -39 -8 -71 1 -41 -3 -64 -14 -74 -11 -12 -12
-16 -2 -20 6 -2 12 -9 12 -15 0 -5 -3 -7 -7 -4 -3 4 -15 -5 -25 -20 l-18 -28
2 28 c1 15 6 27 10 27 4 0 8 5 8 11 0 5 -4 7 -10 4 -6 -4 -10 5 -10 19 0 14 4
26 9 26 5 0 7 10 3 22 -3 14 -2 19 6 14 16 -10 15 -43 0 -49 -7 -2 -10 -8 -5
-13 4 -4 14 -1 21 7 10 10 11 27 6 64 -4 28 -8 43 -9 35 -1 -12 -3 -12 -10 -2
-5 9 1 24 18 43 24 27 45 24 23 -4z m67 -16 c8 -15 7 -20 -8 -24 -34 -9 -56
17 -29 34 19 13 26 11 37 -10z m211 14 c0 -2 -10 -10 -22 -16 -21 -11 -22 -11
-9 4 13 16 31 23 31 12z m55 -5 c-3 -5 -10 -10 -16 -10 -5 0 -9 5 -9 10 0 6 7
10 16 10 8 0 12 -4 9 -10z m-147 -25 c-6 -27 1 -32 19 -14 7 7 19 9 29 5 16
-6 16 -8 -1 -26 -16 -18 -16 -20 -1 -26 25 -10 19 -34 -9 -34 -16 0 -25 -6
-25 -15 0 -17 -2 -18 -24 -9 -9 3 -16 13 -16 21 0 8 -5 11 -11 8 -14 -9 -59 3
-59 16 0 6 4 8 8 5 4 -2 14 -1 21 3 10 7 10 12 0 29 -17 27 -4 40 22 24 16
-10 20 -10 18 0 -3 27 2 38 17 38 12 0 15 -7 12 -25z m222 -39 c0 -2 -7 -6
-15 -10 -8 -3 -15 -1 -15 4 0 6 7 10 15 10 8 0 15 -2 15 -4z m-380 -36 c0 -5
-5 -10 -11 -10 -5 0 -7 5 -4 10 3 6 8 10 11 10 2 0 4 -4 4 -10z m285 -10 c-3
-5 -10 -10 -16 -10 -5 0 -9 5 -9 10 0 6 7 10 16 10 8 0 12 -4 9 -10z m117 -4
c3 2 8 -2 11 -11 4 -8 2 -15 -4 -15 -6 0 -8 -4 -4 -9 3 -6 -4 -9 -15 -8 -19 1
-38 27 -20 27 5 0 6 8 3 18 -6 14 -4 15 9 5 8 -7 17 -10 20 -7z m-387 -6 c-3
-5 -12 -10 -18 -10 -7 0 -6 4 3 10 19 12 23 12 15 0z m257 -52 c-13 -13 -26 8
-17 30 6 16 7 16 17 -1 7 -13 7 -22 0 -29z m-372 19 c0 -7 -9 -13 -19 -13 -15
0 -17 3 -9 13 6 7 14 13 19 13 5 0 9 -6 9 -13z m153 -3 c8 -8 -20 -64 -32 -64
-8 0 -6 22 5 58 4 13 17 16 27 6z m417 -22 c3 -2 -5 -2 -16 2 -19 6 -21 3 -16
-20 3 -19 1 -25 -7 -20 -6 4 -11 21 -11 37 0 28 2 29 23 18 12 -6 24 -14 27
-17z m-310 -1 c0 -10 -6 -21 -14 -24 -11 -4 -11 -1 -2 19 13 29 16 30 16 5z
m-160 -22 c0 -11 -4 -17 -10 -14 -5 3 -10 15 -10 26 0 11 5 17 10 14 6 -3 10
-15 10 -26z m85 4 c-14 -27 -33 -43 -50 -43 -5 1 0 9 13 19 12 11 22 26 22 35
0 9 6 16 14 16 13 0 13 -4 1 -27z m135 12 c7 -8 8 -15 2 -15 -5 0 -15 7 -22
15 -7 8 -8 15 -2 15 5 0 15 -7 22 -15z m-30 -25 c1 -8 2 -22 1 -30 -2 -25 -21
10 -21 40 0 25 17 17 20 -10z m317 24 c-3 -3 -12 -4 -19 -1 -8 3 -5 6 6 6 11
1 17 -2 13 -5z m-38 -71 c41 -27 91 -44 147 -47 61 -3 85 -14 60 -28 -13 -7
-14 -13 -6 -23 8 -9 8 -15 0 -20 -13 -8 -13 -65 0 -65 6 0 10 -5 10 -11 0 -11
-15 -10 -86 7 -28 6 -28 6 -9 -9 17 -14 18 -16 3 -17 -9 0 -19 4 -22 9 -3 4
-23 11 -44 15 -22 3 -45 13 -52 21 -9 11 -17 12 -32 4 -15 -8 -19 -8 -14 0 4
7 -1 11 -13 11 -11 0 -23 5 -26 10 -4 7 -14 3 -25 -10 -15 -18 -19 -18 -30 -5
-7 8 -19 15 -27 15 -8 0 -11 5 -8 10 4 7 13 7 26 0 22 -12 24 -9 33 57 3 23 9
48 12 57 4 11 -2 19 -17 25 -24 9 -22 11 21 24 20 5 67 -9 99 -30z m-349 -8
c0 -7 8 -19 18 -25 14 -10 14 -11 0 -6 -10 3 -18 -3 -23 -17 -6 -18 -8 -19
-12 -5 -2 10 -10 15 -19 11 -10 -4 -13 1 -10 18 2 13 9 23 15 22 6 -2 11 2 11
7 0 6 5 10 10 10 6 0 10 -7 10 -15z m-1055 -15 c-3 -5 -1 -10 6 -10 8 0 9 -3
0 -13 -6 -8 -8 -16 -6 -19 3 -3 -3 -8 -13 -10 -15 -4 -18 0 -16 18 3 28 12 44
25 44 6 0 7 -4 4 -10z m1140 -20 c-3 -5 -10 -10 -16 -10 -5 0 -9 5 -9 10 0 6
7 10 16 10 8 0 12 -4 9 -10z m-40 -30 c4 -6 -1 -7 -11 -3 -14 5 -16 2 -12 -15
4 -12 2 -22 -3 -22 -10 0 -12 33 -2 43 9 10 21 9 28 -3z m70 -9 c-3 -6 -11
-11 -17 -11 -6 0 -6 6 2 15 14 17 26 13 15 -4z m-969 -46 c36 -32 37 -35 15
-35 -18 0 -22 -4 -17 -17 5 -15 4 -15 -9 1 -8 11 -15 25 -15 32 0 6 -7 17 -15
24 -16 13 -20 30 -7 30 5 0 26 -16 48 -35z m824 13 c0 -6 -6 -5 -15 2 -8 7
-15 14 -15 16 0 2 7 1 15 -2 8 -4 15 -11 15 -16z m175 2 c19 -8 19 -9 -2 -9
-12 -1 -25 4 -28 9 -7 12 2 12 30 0z m-1190 -41 c-4 -5 1 -9 9 -9 20 0 30 -18
17 -33 -5 -7 -7 -24 -4 -37 5 -19 3 -22 -11 -17 -10 4 -19 1 -22 -8 -9 -22
-24 -18 -24 6 0 11 4 18 10 14 5 -3 5 7 -1 25 -6 16 -15 27 -20 24 -17 -10 -9
8 13 31 21 22 45 25 33 4z m145 6 c0 -8 -2 -15 -4 -15 -2 0 -6 7 -10 15 -3 8
-1 15 4 15 6 0 10 -7 10 -15z m1050 6 c0 -5 -14 -14 -31 -20 -23 -8 -30 -8
-27 1 3 7 15 15 29 19 13 4 25 7 27 8 1 1 2 -3 2 -8z m-200 -17 c0 -8 -4 -12
-10 -9 -5 3 -10 10 -10 16 0 5 5 9 10 9 6 0 10 -7 10 -16z m-903 -16 c-3 -8
-6 -5 -6 6 -1 11 2 17 5 13 3 -3 4 -12 1 -19z m1114 -5 c-12 -20 -14 -14 -5
12 4 9 9 14 11 11 3 -2 0 -13 -6 -23z m103 19 c3 -5 -1 -9 -9 -9 -8 0 -12 4
-9 9 3 4 7 8 9 8 2 0 6 -4 9 -8z m-359 -12 c-3 -5 -13 -10 -21 -10 -8 0 -14 5
-14 10 0 6 9 10 21 10 11 0 17 -4 14 -10z m405 -21 c0 -5 -7 -9 -15 -9 -8 0
-15 7 -15 15 0 9 6 12 15 9 8 -4 15 -10 15 -15z m-227 4 c-7 -2 -19 -2 -25 0
-7 3 -2 5 12 5 14 0 19 -2 13 -5z m-1163 -34 c0 -5 -7 -9 -15 -9 -15 0 -20 12
-9 23 8 8 24 -1 24 -14z m1077 -12 c3 -6 1 -7 -5 -3 -7 4 -12 1 -12 -6 0 -23
-16 -39 -33 -32 -20 7 -22 29 -5 48 13 14 44 10 55 -7z m75 8 c0 -5 -5 -11
-11 -13 -6 -2 -11 4 -11 13 0 9 5 15 11 13 6 -2 11 -8 11 -13z m458 6 c0 -5
-9 -7 -20 -4 -11 3 -20 7 -20 9 0 2 9 4 20 4 11 0 20 -4 20 -9z m-1490 -11 c0
-5 -10 -10 -22 -10 -19 0 -20 2 -8 10 19 13 30 13 30 0z m60 -25 c0 -29 -3
-30 -24 -9 -18 17 -13 34 10 34 8 0 14 -10 14 -25z m-247 2 c-4 -7 1 -8 13 -4
19 7 19 7 0 -8 -10 -8 -23 -12 -27 -9 -14 9 -10 31 6 31 8 0 11 -5 8 -10z
m1892 3 c-3 -5 -12 -10 -18 -10 -7 0 -6 4 3 10 19 12 23 12 15 0z m-1691 -42
c-5 -8 -43 2 -50 13 -12 21 8 28 31 12 12 -10 21 -21 19 -25z m836 22 c0 -5
-2 -10 -4 -10 -3 0 -8 5 -11 10 -3 6 -1 10 4 10 6 0 11 -4 11 -10z m217 -12
c-3 -8 -6 -5 -6 6 -1 11 2 17 5 13 3 -3 4 -12 1 -19z"/>
<path d="M1924 481 c1 -16 4 -27 9 -24 10 6 9 53 -2 53 -4 0 -8 -13 -7 -29z"/>
<path d="M2214 226 c-8 -22 3 -33 18 -18 9 9 9 15 0 24 -9 9 -13 7 -18 -6z"/>
<path d="M1346 2985 c-3 -8 -18 -17 -33 -21 -15 -4 -35 -15 -45 -24 -9 -10
-32 -27 -50 -38 -19 -12 -40 -33 -46 -47 -6 -14 -16 -25 -22 -25 -7 0 -7 -7 1
-21 9 -17 7 -25 -11 -44 -13 -14 -20 -31 -17 -39 4 -9 1 -15 -6 -13 -19 3 -48
-64 -43 -98 5 -25 4 -27 -5 -11 -10 17 -14 14 -35 -30 -13 -27 -24 -59 -24
-71 0 -25 -16 -39 -23 -21 -2 7 -2 -12 1 -42 2 -30 13 -72 24 -93 11 -22 17
-46 14 -54 -10 -25 15 -105 35 -110 10 -3 19 -14 21 -26 3 -18 5 -19 18 -6 19
17 40 22 40 9 0 -5 6 -7 14 -4 8 3 16 1 20 -4 4 -7 74 -3 168 12 18 3 25 0 22
-9 -3 -7 8 -18 25 -25 23 -9 31 -19 31 -37 0 -23 -15 -62 -29 -73 -12 -10 -31
-78 -31 -113 0 -45 14 -50 140 -50 52 1 100 -3 105 -7 6 -5 19 6 33 30 13 24
18 41 12 45 -6 3 -10 22 -10 41 0 26 -5 37 -22 43 -20 7 -68 -7 -68 -21 0 -9
-68 -47 -74 -41 -12 12 16 45 34 40 13 -3 17 0 13 9 -3 9 2 14 16 14 12 0 21
6 21 15 0 8 9 19 20 25 35 19 11 125 -43 186 -25 28 -39 98 -23 114 7 7 3 10
-10 10 -11 0 -41 19 -65 43 -37 35 -61 48 -128 67 -99 28 -157 30 -194 6 -41
-27 -58 -16 -45 28 6 20 16 36 21 36 5 0 6 7 3 16 -3 8 -2 13 2 10 20 -12 49
33 79 122 18 53 31 85 28 70 -3 -14 -8 -33 -11 -42 -11 -28 14 -17 33 14 9 17
21 30 25 30 4 0 8 7 8 15 0 20 41 29 98 21 122 -17 142 -18 156 -7 10 8 16 9
21 1 4 -7 12 -7 26 0 11 6 17 15 13 21 -4 6 -11 6 -20 -2 -19 -15 -29 -5 -16
16 11 22 0 87 -22 120 -30 46 -156 76 -170 40z m144 -30 c0 -8 -2 -15 -4 -15
-2 0 -6 7 -10 15 -3 8 -1 15 4 15 6 0 10 -7 10 -15z m-270 -85 c-8 -5 -19 -10
-25 -10 -5 0 -3 5 5 10 8 5 20 10 25 10 6 0 3 -5 -5 -10z m-175 -370 c3 -5 1
-10 -4 -10 -6 0 -11 5 -11 10 0 6 2 10 4 10 3 0 8 -4 11 -10z m219 -60 c42
-16 30 -25 -37 -27 -59 -2 -141 -32 -159 -58 -4 -5 -10 -6 -14 -2 -10 9 44 77
70 87 29 12 109 12 140 0z m92 -95 c31 -3 64 -33 64 -57 0 -10 -3 -18 -6 -18
-7 0 -93 60 -113 79 -13 12 -12 13 8 6 13 -4 34 -8 47 -10z m5 -63 c26 -22 48
-58 27 -46 -53 32 -107 77 -102 85 6 10 35 -5 75 -39z m-55 -30 c6 -4 13 -15
17 -25 6 -16 2 -18 -26 -15 -24 2 -33 8 -35 26 -3 16 2 22 15 22 10 0 23 -4
29 -8z"/>
<path d="M1021 2705 c-7 -20 -11 -39 -8 -41 7 -7 30 53 25 66 -2 6 -9 -5 -17
-25z"/>
<path d="M1754 2623 c15 -30 53 -73 63 -73 6 0 -26 40 -41 51 -5 4 -6 12 -2
17 4 6 -3 16 -14 22 -21 11 -21 10 -6 -17z"/>
<path d="M1695 2336 c-23 -17 -13 -51 13 -43 103 34 111 41 61 51 -44 9 -53 8
-74 -8z"/>
<path d="M1780 2245 c-10 -12 -9 -15 8 -15 24 0 70 -35 60 -46 -4 -4 -14 -2
-21 5 -8 6 -34 14 -58 17 -24 4 -47 11 -50 17 -10 15 -42 -1 -35 -18 4 -13 2
-13 -14 -5 -20 11 -29 -3 -10 -15 6 -3 10 -17 10 -31 0 -32 52 -64 106 -64 22
0 46 -6 53 -12 10 -11 16 -9 29 7 11 13 29 20 50 20 19 -1 35 2 38 6 8 14 -8
39 -25 39 -10 0 -27 18 -40 40 -35 62 -76 85 -101 55z m56 -11 c18 -14 18 -14
-6 -3 -31 14 -36 19 -24 19 6 0 19 -7 30 -16z m-23 -121 c-7 -2 -19 -2 -25 0
-7 3 -2 5 12 5 14 0 19 -2 13 -5z"/>
<path d="M1936 2020 c7 -48 22 -95 29 -89 2 2 -5 33 -16 69 -16 56 -18 59 -13
20z"/>
<path d="M2860 2047 c0 -4 9 -26 20 -48 12 -23 19 -50 16 -62 -3 -12 -3 -16 0
-9 3 6 10 9 15 6 6 -3 4 10 -4 28 -19 46 -46 95 -47 85z"/>
<path d="M2101 2014 c0 -11 3 -14 6 -6 3 7 2 16 -1 19 -3 4 -6 -2 -5 -13z"/>
<path d="M126 1999 c-65 -4 -121 -11 -125 -15 -9 -10 291 6 309 17 18 10 -12
10 -184 -2z"/>
<path d="M1677 1912 c-16 -18 -16 -20 1 -36 15 -13 21 -14 30 -4 32 40 3 78
-31 40z"/>
<path d="M2112 1870 c0 -19 2 -27 5 -17 2 9 2 25 0 35 -3 9 -5 1 -5 -18z"/>
<path d="M1740 1885 c0 -15 24 -53 31 -49 5 3 9 -3 9 -13 0 -14 2 -15 9 -4 6
9 3 21 -10 34 -10 12 -19 24 -19 29 0 4 -4 8 -10 8 -5 0 -10 -2 -10 -5z"/>
<path d="M1964 1847 c0 -18 -5 -73 -11 -123 -9 -73 -9 -99 2 -130 12 -36 12
-40 -6 -46 -18 -7 -21 -12 -23 -40 -1 -7 -5 -16 -11 -20 -6 -5 -5 -8 3 -8 7 0
24 12 37 28 28 31 33 83 10 105 -13 13 -13 22 3 71 10 31 21 54 25 50 6 -7 4
23 -9 99 -8 47 -19 55 -20 14z"/>
<path d="M2913 1856 c6 -35 -14 -61 -32 -43 -9 9 -11 8 -6 -5 6 -14 19 -18 65
-18 60 0 76 9 66 37 -5 12 -9 13 -20 4 -10 -8 -16 -9 -21 -1 -3 6 -10 8 -15 5
-5 -3 -16 7 -25 22 l-16 28 4 -29z"/>
<path d="M790 1829 c0 -5 5 -7 10 -4 6 3 10 8 10 11 0 2 -4 4 -10 4 -5 0 -10
-5 -10 -11z"/>
<path d="M737 1799 c-37 -45 -34 -62 4 -21 17 18 29 37 27 43 -2 6 -16 -4 -31
-22z"/>
<path d="M2118 1768 c2 -35 8 -76 13 -93 7 -24 8 -21 4 19 -3 27 -5 68 -5 92
0 24 -4 44 -8 44 -5 0 -6 -28 -4 -62z"/>
<path d="M1288 1773 c-29 -31 -45 -77 -30 -87 5 -3 12 3 15 14 3 12 14 20 25
20 28 0 35 -15 21 -41 -9 -17 -8 -23 2 -30 8 -5 10 -9 5 -9 -5 0 -3 -6 3 -14
13 -15 -1 -32 -18 -22 -5 4 -15 4 -23 1 -18 -7 -18 -85 -1 -85 7 0 10 6 8 13
-6 16 39 67 59 67 9 0 13 -6 10 -14 -4 -10 1 -12 18 -9 13 2 51 0 84 -5 50 -7
61 -6 57 5 -6 16 -9 16 51 -2 56 -17 106 -20 106 -6 0 13 -41 41 -60 41 -9 0
-26 11 -38 25 l-21 24 70 -1 c64 -1 75 -5 112 -35 23 -18 46 -33 50 -33 13 0
-4 44 -19 53 -8 4 -14 14 -14 22 0 8 -12 22 -27 32 -16 10 -31 22 -34 27 -4 5
-20 6 -37 3 -19 -4 -37 0 -52 10 -15 10 -43 16 -74 16 -79 -1 -116 -6 -111
-14 3 -4 -2 -10 -10 -13 -11 -4 -15 0 -13 12 4 22 -48 25 -69 3 -13 -12 -14
-12 -11 5 2 10 7 22 12 25 9 7 0 29 -13 29 -4 0 -19 -12 -33 -27z"/>
<path d="M2233 1740 c-46 -28 -62 -80 -56 -183 4 -51 10 -84 15 -81 6 4 8 17
5 30 -2 13 0 24 5 24 6 0 7 11 4 25 -4 15 0 37 9 55 8 16 15 41 15 56 0 26 1
26 43 19 39 -7 106 -9 152 -5 17 2 16 3 -5 10 -16 5 9 8 74 9 83 1 97 3 92 16
-4 13 6 15 67 13 62 -1 67 -2 32 -8 -34 -6 -33 -7 10 -3 28 3 91 8 140 12 l90
6 -155 7 c-85 4 -234 9 -331 12 -157 4 -180 2 -206 -14z m119 -31 c-5 -20 -20
-27 -47 -22 -20 4 -24 15 -16 40 1 2 16 1 34 -1 20 -3 31 -9 29 -17z m145 15
c-3 -3 -12 -4 -19 -1 -8 3 -5 6 6 6 11 1 17 -2 13 -5z"/>
<path d="M2957 1743 c-4 -6 7 -10 23 -11 15 0 42 -8 59 -17 32 -16 43 -32 15
-21 -8 3 -12 2 -9 -4 3 -6 12 -10 20 -10 18 0 28 -33 26 -91 0 -27 4 -51 9
-54 15 -10 12 101 -4 140 -8 18 -25 41 -39 50 -31 20 -92 31 -100 18z"/>
<path d="M2933 1673 c-32 -6 -63 -50 -63 -88 0 -59 76 -103 125 -71 29 19 39
20 29 4 -4 -7 -3 -9 1 -5 5 4 11 29 13 56 3 40 -1 53 -20 74 -25 28 -50 36
-85 30z"/>
<path d="M667 1584 c-5 -26 10 -51 22 -38 3 3 -1 9 -8 13 -10 7 -11 9 -1 13
10 3 10 9 3 22 -9 16 -11 15 -16 -10z"/>
<path d="M2135 1526 c3 -27 5 -68 5 -92 0 -24 4 -44 9 -44 10 0 2 137 -11 165
-6 13 -7 4 -3 -29z"/>
<path d="M1322 1525 c-16 -14 -34 -25 -40 -25 -5 0 -15 -6 -21 -14 -10 -12 -8
-17 8 -26 18 -9 23 -7 32 13 14 31 49 53 59 37 5 -8 9 -7 13 3 3 9 0 20 -7 27
-11 8 -21 4 -44 -15z"/>
<path d="M2787 1533 c-11 -11 -8 -48 5 -61 30 -30 75 0 64 43 -5 19 -13 25
-35 25 -15 0 -31 -3 -34 -7z"/>
<path d="M2870 1527 c0 -8 7 -14 15 -14 11 0 12 4 4 14 -6 7 -13 13 -15 13 -2
0 -4 -6 -4 -13z"/>
<path d="M220 1520 c-9 -6 -10 -10 -3 -10 6 0 15 5 18 10 8 12 4 12 -15 0z"/>
<path d="M2010 1522 c0 -12 19 -26 26 -19 2 2 -2 10 -11 17 -9 8 -15 8 -15 2z"/>
<path d="M3090 1384 c0 -87 -4 -133 -10 -129 -6 4 -10 -18 -11 -57 0 -35 -3
-58 -5 -51 -3 7 -12 9 -20 6 -8 -3 -14 0 -14 5 0 7 -11 5 -27 -4 -38 -19 -113
-15 -113 6 0 5 13 3 28 -2 32 -12 67 -6 97 17 14 12 19 28 20 63 0 26 -2 48
-5 49 -3 1 -18 8 -34 16 -35 19 -74 13 -104 -16 -20 -18 -23 -29 -18 -62 3
-22 6 -48 7 -58 0 -10 7 -21 15 -24 23 -8 16 -20 -12 -20 -14 0 -28 6 -31 13
-3 8 -10 14 -17 14 -6 0 -31 21 -54 47 -40 44 -44 46 -39 21 5 -35 -9 -59 -22
-38 -6 8 -6 17 -2 20 4 3 5 16 1 30 l-6 25 -27 -27 c-16 -16 -32 -28 -37 -28
-6 0 -10 -7 -10 -15 0 -11 -11 -15 -40 -15 -29 0 -40 4 -40 15 0 8 -7 15 -15
15 -11 0 -15 -11 -15 -41 0 -32 3 -40 15 -35 10 4 15 -1 15 -14 0 -13 -7 -20
-20 -20 -30 0 -40 -31 -40 -124 0 -47 -4 -88 -10 -91 -6 -4 -10 12 -10 39 l0
46 -40 0 c-22 0 -40 5 -40 10 0 6 -7 10 -15 10 -8 0 -15 9 -15 20 0 11 7 20
15 20 8 0 15 9 15 20 0 17 -7 20 -40 20 -22 0 -40 -4 -40 -10 0 -5 7 -10 15
-10 8 0 15 -4 15 -10 0 -5 -7 -10 -15 -10 -8 0 -15 -9 -15 -20 0 -11 7 -20 15
-20 8 0 15 -4 15 -10 0 -5 7 -10 15 -10 11 0 15 -11 15 -40 0 -36 3 -40 25
-40 23 0 25 -4 25 -40 0 -22 4 -40 9 -40 5 0 12 -18 16 -40 7 -41 25 -56 25
-20 0 13 5 18 15 14 30 -12 35 -39 17 -82 l-17 -41 -72 -7 c-68 -6 -89 -16
-60 -27 6 -3 0 -6 -15 -6 -17 -1 -28 -7 -28 -15 0 -13 17 -16 265 -35 68 -6
119 -16 160 -33 33 -13 96 -34 140 -46 44 -13 106 -30 138 -39 31 -9 60 -13
64 -9 4 4 8 165 10 359 2 194 4 441 6 550 2 108 0 197 -5 197 -4 0 -8 -61 -8
-136z m-85 -259 c-48 -18 -55 -18 -55 -4 0 6 7 9 15 6 8 -4 17 -2 20 3 4 6 18
10 33 10 24 -1 22 -3 -13 -15z"/>
<path d="M2875 1491 c-3 -5 -1 -12 5 -16 7 -4 7 -12 0 -25 -30 -56 11 -120 78
-120 21 0 42 3 46 8 4 4 12 7 18 7 18 0 20 72 3 105 -21 40 -52 48 -125 29 -8
-2 -14 2 -12 9 2 14 -4 16 -13 3z"/>
<path d="M2201 1460 c-1 -23 15 -45 23 -31 4 6 3 11 -3 11 -5 0 -12 8 -14 18
-3 12 -5 13 -6 2z"/>
<path d="M211 1444 c0 -11 3 -14 6 -6 3 7 2 16 -1 19 -3 4 -6 -2 -5 -13z"/>
<path d="M1355 1450 c-3 -5 -1 -10 4 -10 6 0 11 5 11 10 0 6 -2 10 -4 10 -3 0
-8 -4 -11 -10z"/>
<path d="M2770 1452 c0 -5 7 -9 15 -9 8 0 12 4 9 9 -3 4 -9 8 -15 8 -5 0 -9
-4 -9 -8z"/>
<path d="M2183 1380 c0 -33 4 -60 10 -60 5 0 4 -7 -3 -15 -7 -9 -8 -15 -2 -15
5 0 8 -9 5 -20 -3 -11 0 -33 6 -50 6 -19 6 -28 0 -25 -6 4 -7 -9 -3 -36 6 -36
5 -41 -9 -36 -9 3 -19 2 -22 -3 -4 -6 3 -10 14 -10 12 0 20 -3 19 -7 0 -5 2
-16 6 -25 4 -9 3 -25 -3 -37 -16 -29 -14 -64 3 -58 12 5 12 2 1 -20 -8 -15
-12 -30 -9 -34 2 -4 7 -63 10 -131 3 -68 9 -124 14 -126 5 -2 4 -12 -3 -23
-10 -16 -9 -21 2 -28 11 -7 11 -9 0 -13 -12 -4 -5 -28 9 -28 4 0 7 65 7 144 0
104 3 142 11 139 7 -2 15 0 19 6 3 6 -1 11 -9 11 -11 0 -16 10 -16 33 0 18 -5
38 -12 45 -12 12 -8 15 45 26 15 4 27 11 27 16 0 15 -63 29 -77 17 -9 -6 -13
-6 -13 1 0 5 6 12 14 15 17 7 17 48 1 59 -7 5 -7 8 0 8 7 0 10 25 9 63 -1 34
0 56 3 50 8 -22 43 -15 43 7 0 11 -7 20 -15 20 -9 0 -15 9 -15 23 0 18 -2 19
-10 7 -8 -13 -10 -12 -10 3 0 9 -4 17 -10 17 -5 0 -10 4 -10 10 0 5 6 7 13 5
8 -4 12 6 13 29 0 26 -3 33 -14 28 -12 -4 -14 0 -10 16 4 12 2 20 -3 16 -5 -3
-9 4 -9 15 0 11 -4 22 -8 25 -5 3 -9 -22 -9 -54z m47 -220 c0 -5 -4 -10 -10
-10 -5 0 -10 5 -10 10 0 6 5 10 10 10 6 0 10 -4 10 -10z m-3 -442 c-3 -7 -5
-2 -5 12 0 14 2 19 5 13 2 -7 2 -19 0 -25z"/>
<path d="M1957 1419 c7 -7 15 -10 18 -7 3 3 -2 9 -12 12 -14 6 -15 5 -6 -5z"/>
<path d="M230 1404 c0 -5 9 -20 20 -34 14 -18 20 -21 20 -9 0 9 -9 24 -20 34
-11 10 -20 14 -20 9z"/>
<path d="M1876 1365 c-4 -14 -2 -33 3 -43 9 -14 10 -12 11 13 0 17 4 26 8 20
4 -5 18 -11 32 -12 l25 -3 -27 17 c-16 10 -28 21 -28 25 0 19 -18 6 -24 -17z"/>
<path d="M2400 1240 c0 -29 4 -40 15 -40 11 0 15 11 15 40 0 29 -4 40 -15 40
-11 0 -15 -11 -15 -40z"/>
<path d="M2800 1246 c0 -9 -4 -14 -10 -11 -5 3 -10 1 -10 -4 0 -6 5 -11 10
-11 13 0 25 28 16 37 -3 4 -6 -1 -6 -11z"/>
<path d="M1921 1204 c0 -11 3 -14 6 -6 3 7 2 16 -1 19 -3 4 -6 -2 -5 -13z"/>
<path d="M1956 1198 c-9 -36 -7 -41 14 -35 13 3 20 0 20 -9 0 -8 -5 -14 -11
-14 -5 0 -7 -5 -4 -10 4 -7 14 -2 26 11 10 12 19 18 19 13 0 -6 -5 -15 -11
-21 -17 -17 -2 -33 31 -33 24 0 28 3 25 23 -3 12 -14 28 -25 36 -11 7 -20 20
-20 28 0 8 -4 11 -10 8 -5 -3 -10 1 -10 9 0 25 -37 19 -44 -6z"/>
<path d="M2430 1080 c0 -22 5 -40 10 -40 6 0 10 18 10 40 0 22 -4 40 -10 40
-5 0 -10 -18 -10 -40z"/>
<path d="M2005 1055 c16 -13 31 -22 34 -20 5 6 -41 44 -54 44 -5 0 3 -11 20
-24z"/>
<path d="M2130 1060 c0 -5 5 -10 10 -10 14 0 13 -27 -2 -32 -13 -5 -2 -28 14
-28 5 0 7 7 4 16 -4 11 1 18 14 21 11 3 17 10 14 15 -4 6 0 14 7 19 10 6 2 9
-23 9 -21 0 -38 -4 -38 -10z"/>
<path d="M2061 1043 c-13 -14 -12 -18 4 -29 16 -12 20 -12 28 2 6 11 5 21 -4
29 -12 11 -16 11 -28 -2z"/>
<path d="M1900 986 c-12 -32 -4 -53 34 -92 29 -29 96 -71 96 -60 0 3 -20 26
-44 51 -34 34 -46 55 -48 82 -4 44 -24 54 -38 19z"/>
<path d="M3138 1003 c12 -2 32 -2 45 0 12 2 2 4 -23 4 -25 0 -35 -2 -22 -4z"/>
<path d="M1960 975 c0 -31 31 -74 74 -105 25 -16 47 -30 50 -30 3 0 6 12 6 26
0 16 4 23 12 18 7 -4 8 -3 4 4 -4 7 -16 12 -27 12 -11 0 -17 4 -14 10 3 5 0 7
-8 4 -8 -3 -18 -1 -22 5 -3 6 1 11 9 11 24 0 19 15 -9 28 -33 15 -35 15 -35
-4 0 -8 4 -12 10 -9 6 3 7 -1 4 -10 -6 -14 -8 -14 -20 2 -7 10 -14 23 -14 30
0 18 -20 26 -20 8z"/>
<path d="M2160 919 c0 -5 5 -7 10 -4 6 3 10 8 10 11 0 2 -4 4 -10 4 -5 0 -10
-5 -10 -11z"/>
<path d="M439 887 c-21 -29 -49 -111 -48 -140 0 -21 1 -21 11 3 6 14 13 34 15
45 2 11 15 36 28 55 37 53 30 87 -6 37z"/>
<path d="M2137 883 c-10 -9 -9 -33 1 -33 4 0 8 9 8 20 0 23 0 22 -9 13z"/>
<path d="M2156 863 c-3 -10 -9 -24 -12 -30 -4 -9 3 -13 21 -13 23 0 26 4 23
27 -4 31 -23 41 -32 16z"/>
<path d="M58 863 l-58 -4 0 -37 c0 -43 27 -275 69 -590 27 -211 41 -278 41
-201 l0 33 17 -24 c10 -14 17 -28 15 -32 -1 -5 21 -8 48 -8 33 0 50 4 50 13 0
9 2 9 9 -1 9 -14 32 -13 43 3 5 6 8 5 8 -2 0 -7 7 -13 15 -13 15 0 20 16 17
55 -1 12 7 24 20 30 15 6 23 19 24 35 0 31 11 50 27 50 8 0 8 -3 -1 -9 -8 -5
-12 -17 -10 -27 4 -17 6 -16 17 7 10 19 20 25 47 26 19 1 34 -3 34 -8 0 -5 7
-9 16 -9 14 0 15 7 10 37 -3 21 -6 44 -6 52 0 8 -6 11 -15 7 -19 -7 -47 3 -39
15 3 5 10 7 15 4 5 -4 9 0 9 9 0 8 6 17 13 20 8 3 4 12 -13 26 -23 20 -23 23
-7 35 9 7 17 17 17 23 0 14 -28 23 -33 9 -2 -8 -5 -8 -10 0 -4 6 0 19 10 28
13 13 13 19 4 25 -10 5 -10 9 -2 15 9 5 9 10 0 21 -18 22 -27 17 -39 -23 -6
-21 -18 -51 -25 -68 -27 -62 -27 -72 -3 -96 23 -23 23 -24 5 -42 -10 -10 -23
-15 -29 -11 -7 5 -8 3 -4 -5 10 -16 56 -35 80 -32 12 2 16 -2 11 -9 -9 -15
-63 -5 -86 16 -15 14 -17 12 -23 -20 -4 -20 -3 -44 2 -53 5 -10 7 -24 5 -30
-6 -16 -39 -17 -49 -1 -5 8 -2 9 9 5 9 -3 19 -2 22 4 4 5 1 8 -6 7 -6 -2 -14
3 -17 11 -3 8 0 11 7 7 7 -5 11 2 11 18 0 20 -5 26 -21 26 -12 0 -17 4 -14 11
4 6 13 8 21 5 22 -8 29 23 10 42 -15 15 -18 15 -26 2 -5 -8 -12 -11 -15 -8
-11 11 5 28 26 28 10 0 19 -5 19 -12 0 -6 3 -8 6 -5 10 9 -13 34 -37 40 -27 7
-46 -38 -29 -67 8 -13 9 -21 1 -29 -6 -6 -11 -19 -11 -29 0 -10 -4 -18 -10
-18 -5 0 -10 11 -10 25 0 15 -8 29 -22 36 -18 10 -20 9 -14 -6 5 -13 2 -16
-10 -11 -12 5 -15 2 -10 -10 3 -8 6 -18 6 -20 0 -3 5 -2 11 1 6 4 13 -2 16
-13 3 -12 11 -18 18 -16 9 4 12 -3 11 -19 0 -14 -3 -24 -6 -22 -10 6 -25 -9
-37 -35 l-12 -25 2 25 c1 15 -3 24 -10 22 -7 -1 -13 7 -13 18 0 23 -13 26 -28
7 -9 -10 -6 -18 10 -31 17 -15 18 -20 7 -27 -10 -6 -15 -3 -17 11 -3 18 -14
24 -35 21 -4 0 -7 6 -7 14 0 8 -20 177 -45 374 -25 197 -45 366 -45 375 0 14
15 16 98 16 53 0 104 5 112 10 15 10 -35 11 -162 3z m392 -503 c0 -5 -4 -10
-10 -10 -5 0 -10 5 -10 10 0 6 5 10 10 10 6 0 10 -4 10 -10z m-53 -32 c-3 -8
-6 -5 -6 6 -1 11 2 17 5 13 3 -3 4 -12 1 -19z m38 -108 c3 -5 1 -10 -4 -10 -6
0 -11 5 -11 10 0 6 2 10 4 10 3 0 8 -4 11 -10z m-135 -152 c0 -38 -28 -17 -36
27 -4 24 -4 25 16 8 11 -10 20 -25 20 -35z"/>
<path d="M1928 803 c7 -3 16 -2 19 1 4 3 -2 6 -13 5 -11 0 -14 -3 -6 -6z"/>
<path d="M245 790 c-3 -5 -1 -10 4 -10 6 0 11 5 11 10 0 6 -2 10 -4 10 -3 0
-8 -4 -11 -10z"/>
<path d="M460 770 l-25 -8 23 -7 c12 -4 22 -9 22 -12 0 -2 -20 -33 -45 -70
-49 -71 -58 -99 -22 -65 25 24 37 28 37 12 0 -5 -6 -10 -13 -10 -18 0 -41 -45
-32 -60 5 -8 12 -5 22 9 8 12 20 21 27 21 16 0 36 72 33 115 -1 17 1 42 5 58
7 29 6 29 -32 17z"/>
<path d="M581 738 c0 -16 4 -28 9 -28 6 0 10 -13 10 -29 0 -24 21 -61 34 -61
2 0 -1 21 -5 48 -4 26 -8 52 -8 59 -1 7 -7 10 -15 7 -8 -3 -16 2 -19 13 -3 12
-5 9 -6 -9z"/>
<path d="M710 668 c0 -8 9 -26 19 -40 21 -26 35 -74 47 -158 5 -31 10 -45 12
-32 2 12 8 22 13 22 12 0 12 81 0 113 -13 33 -91 115 -91 95z"/>
<path d="M3134 667 c4 -11 3 -24 -1 -30 -9 -15 -10 -97 -1 -97 4 0 6 -9 5 -20
-1 -11 -5 -20 -10 -20 -4 0 -7 -22 -6 -50 2 -34 7 -50 16 -50 8 0 25 -11 38
-24 l24 -24 -1 82 c0 58 -5 86 -16 99 -8 9 -11 17 -6 17 5 0 0 7 -10 15 -11 8
-14 15 -8 15 16 0 9 39 -13 76 -9 16 -14 21 -11 11z m46 -152 c7 -8 8 -15 2
-15 -5 0 -15 7 -22 15 -7 8 -8 15 -2 15 5 0 15 -7 22 -15z"/>
<path d="M660 642 c0 -21 27 -62 41 -62 5 0 0 18 -11 40 -22 44 -30 49 -30 22z"/>
<path d="M566 636 c3 -9 11 -16 16 -16 13 0 5 23 -10 28 -7 2 -10 -2 -6 -12z"/>
<path d="M532 600 c0 -19 -5 -50 -11 -67 -6 -20 -6 -33 0 -33 5 0 9 5 9 10 0
6 6 10 14 10 8 0 17 6 19 13 4 7 8 3 12 -10 4 -13 15 -23 24 -23 13 -1 13 -3
-4 -16 -14 -11 -16 -18 -7 -21 16 -6 15 -23 -2 -23 -17 0 -27 -25 -19 -47 6
-15 7 -15 14 3 7 18 8 18 15 -3 5 -19 9 -21 26 -12 17 9 19 19 15 70 -2 32
-10 66 -17 75 -8 8 -14 27 -15 40 -1 29 -22 46 -47 40 -10 -2 -19 3 -21 13 -2
9 -4 0 -5 -19z"/>
<path d="M272 570 c-19 -31 -13 -47 8 -21 11 13 20 27 20 32 0 16 -15 10 -28
-11z"/>
<path d="M305 559 c-4 -6 -5 -12 -2 -15 2 -3 7 2 10 11 7 17 1 20 -8 4z"/>
<path d="M355 550 c3 -5 8 -10 11 -10 2 0 4 5 4 10 0 6 -5 10 -11 10 -5 0 -7
-4 -4 -10z"/>
<path d="M707 506 c28 -59 43 -63 43 -15 0 44 -17 69 -45 69 l-25 0 27 -54z"/>
<path d="M384 522 c-16 -9 -35 -82 -23 -82 5 0 13 10 18 23 5 12 11 21 15 20
16 -7 26 -1 26 15 0 14 -2 14 -9 3 -7 -11 -10 -10 -13 7 -2 13 -7 19 -14 14z"/>
<path d="M2500 520 c-23 -7 -23 -8 -3 -9 12 -1 25 4 28 9 3 6 5 10 3 9 -2 -1
-14 -5 -28 -9z"/>
<path d="M240 513 c-19 -8 -30 -23 -30 -46 0 -11 5 -15 11 -11 8 4 7 0 -1 -15
-12 -23 -35 -19 -26 5 6 17 5 17 -28 4 -18 -6 -24 -14 -20 -25 4 -9 2 -15 -5
-13 -9 2 -39 -57 -41 -79 0 -1 6 0 14 3 10 4 13 0 11 -13 -2 -10 -4 -25 -4
-33 -1 -13 -2 -13 -11 0 -8 12 -10 10 -10 -8 0 -14 4 -21 10 -17 7 4 9 -2 5
-18 -4 -14 -2 -28 4 -31 6 -4 11 -14 11 -22 0 -8 -4 -12 -10 -9 -5 3 -10 -3
-10 -14 0 -10 6 -21 13 -24 10 -4 10 -7 0 -18 -7 -7 -13 -17 -13 -21 0 -14 27
-8 41 9 10 11 10 14 1 9 -17 -10 -15 9 3 24 8 7 18 30 21 52 4 21 11 41 15 44
12 7 11 24 -1 24 -6 0 -15 -11 -20 -25 -12 -30 -20 -33 -15 -4 4 17 2 19 -10
9 -8 -7 -15 -9 -15 -4 0 15 14 30 33 37 13 5 16 13 11 34 -4 16 -11 30 -16 31
-14 6 -9 49 7 62 9 7 19 10 22 6 12 -12 12 -40 0 -48 -6 -4 -8 -11 -3 -15 4
-4 14 1 22 12 12 16 16 17 23 6 5 -8 20 -15 34 -17 20 -2 25 2 24 17 -1 14 -9
19 -32 20 l-30 1 29 7 c17 3 29 9 27 14 -1 4 0 26 4 48 9 50 -6 67 -45 52z
m-80 -213 c0 -5 -2 -10 -4 -10 -3 0 -8 5 -11 10 -3 6 -1 10 4 10 6 0 11 -4 11
-10z"/>
<path d="M337 514 c-4 -4 -7 -14 -7 -23 0 -11 3 -12 11 -4 6 6 10 16 7 23 -2
6 -7 8 -11 4z"/>
<path d="M2557 498 c6 -11 63 -10 63 0 0 5 -15 8 -34 8 -19 -1 -32 -4 -29 -8z"/>
<path d="M2600 447 c19 -20 70 -33 70 -19 0 10 -11 14 -65 29 -18 5 -18 3 -5
-10z"/>
<path d="M538 424 c-3 -12 -2 -28 3 -35 13 -21 19 -6 10 26 -7 27 -8 28 -13 9z"/>
<path d="M346 374 c-11 -27 -7 -37 9 -24 16 14 20 40 6 40 -5 0 -12 -7 -15
-16z"/>
<path d="M514 345 c4 -34 25 -51 51 -41 17 6 16 8 -6 23 -13 10 -29 24 -36 33
-10 12 -11 10 -9 -15z"/>
<path d="M570 341 c0 -5 11 -11 25 -13 17 -4 25 -1 25 8 0 8 -11 14 -25 14
-14 0 -25 -4 -25 -9z"/>
<path d="M1385 340 c-8 -13 -1 -24 14 -19 6 3 7 10 2 18 -6 10 -10 10 -16 1z"/>
<path d="M263 333 c-15 -5 -17 -23 -4 -23 5 0 11 7 15 15 3 8 4 15 3 14 -1 0
-8 -3 -14 -6z"/>
<path d="M745 321 c-3 -5 -1 -12 5 -16 5 -3 10 1 10 9 0 18 -6 21 -15 7z"/>
<path d="M1470 320 c-11 -7 -12 -12 -4 -20 8 -8 13 -6 17 9 3 12 4 21 4 21 -1
0 -9 -5 -17 -10z"/>
<path d="M662 308 c3 -7 13 -15 23 -17 17 -3 17 -2 3 13 -20 19 -31 21 -26 4z"/>
<path d="M615 302 c-50 -17 -55 -25 -43 -64 6 -21 15 -35 20 -32 5 3 8 0 6 -7
-1 -8 0 -15 5 -16 17 -6 25 -2 30 17 3 11 11 19 17 18 7 -2 15 3 17 10 3 6 0
12 -6 12 -6 0 -11 7 -11 15 0 8 -5 15 -11 15 -6 0 -8 9 -4 20 3 11 5 20 3 19
-2 -1 -12 -4 -23 -7z m0 -52 c-3 -5 -13 -10 -21 -10 -8 0 -12 5 -9 10 3 6 13
10 21 10 8 0 12 -4 9 -10z"/>
<path d="M1373 300 c-16 -6 -23 -18 -23 -35 0 -16 -6 -25 -15 -25 -11 0 -15
-11 -15 -40 0 -35 3 -40 23 -39 12 0 16 3 10 6 -29 11 -12 30 25 29 27 -1 37
3 37 14 0 10 -10 15 -27 15 -15 0 -28 3 -28 8 0 4 0 12 0 17 0 6 12 9 28 8 23
-3 27 1 27 21 0 28 -11 33 -42 21z"/>
<path d="M1705 280 c-3 -6 1 -7 9 -4 18 7 21 14 7 14 -6 0 -13 -4 -16 -10z"/>
<path d="M687 260 c3 -11 7 -20 9 -20 2 0 4 9 4 20 0 11 -4 20 -9 20 -5 0 -7
-9 -4 -20z"/>
<path d="M1466 261 c-4 -7 -5 -15 -2 -18 9 -9 19 4 14 18 -4 11 -6 11 -12 0z"/>
<path d="M216 244 c-5 -14 -4 -15 9 -4 17 14 19 20 6 20 -5 0 -12 -7 -15 -16z"/>
<path d="M740 237 c0 -1 -4 -18 -10 -36 -5 -20 -6 -31 -1 -25 12 11 25 64 17
64 -3 0 -6 -1 -6 -3z"/>
<path d="M1580 200 c0 -5 5 -10 10 -10 6 0 10 5 10 10 0 6 -4 10 -10 10 -5 0
-10 -4 -10 -10z"/>
<path d="M420 125 c-10 -12 -10 -15 3 -15 19 0 31 16 18 24 -5 3 -14 -1 -21
-9z"/>
<path d="M479 113 c-9 -23 -7 -35 8 -62 10 -19 27 -38 39 -42 20 -7 21 -5 17
39 -2 26 -8 51 -13 56 -4 4 -6 15 -3 22 3 9 -2 14 -16 14 -14 0 -25 -9 -32
-27z m31 -43 c0 -5 -7 -7 -15 -4 -8 4 -12 10 -9 15 6 11 24 2 24 -11z"/>
<path d="M593 90 c3 -11 1 -20 -4 -20 -5 0 -9 -7 -9 -15 0 -22 17 -18 34 7 22
31 20 48 -5 48 -16 0 -20 -5 -16 -20z"/>
<path d="M390 79 c0 -11 5 -17 10 -14 6 3 10 13 10 21 0 8 -4 14 -10 14 -5 0
-10 -9 -10 -21z"/>
<path d="M433 93 c-7 -2 -13 -15 -13 -28 0 -13 -5 -25 -11 -27 -5 -2 -8 -10
-4 -19 3 -10 21 -15 51 -17 28 -1 43 2 39 8 -4 6 -12 10 -18 9 -25 -3 -33 2
-34 21 -1 11 2 18 8 15 5 -4 9 -1 9 4 0 6 -5 11 -11 11 -6 0 -9 7 -5 15 3 8 4
15 3 14 -1 0 -8 -3 -14 -6z"/>
<path d="M1330 90 c0 -5 5 -10 10 -10 6 0 10 5 10 10 0 6 -4 10 -10 10 -5 0
-10 -4 -10 -10z"/>
<path d="M1280 52 c0 -5 7 -13 16 -16 10 -4 14 -1 12 6 -5 15 -28 23 -28 10z"/>
<path d="M1685 30 c2 -14 4 -27 4 -29 1 -2 8 2 16 9 19 16 20 34 1 27 -8 -3
-17 -1 -20 6 -2 7 -3 1 -1 -13z"/>
<path d="M1290 15 l-25 -14 33 -1 c22 0 32 5 32 15 0 18 -8 18 -40 0z"/>
<path d="M1425 20 c-8 -13 -1 -24 14 -19 6 3 7 10 2 18 -6 10 -10 10 -16 1z"/>
</g>
</svg>
